<?xml version="1.0" encoding="UTF-8"?>
<svg width="20px" height="24px" viewBox="0 0 20 24" version="1.1" xmlns="http://www.w3.org/2000/svg" xmlns:xlink="http://www.w3.org/1999/xlink">
    <!-- Generator: Sketch 48 (47235) - http://www.bohemiancoding.com/sketch -->
    <title>ico-home-selected</title>
    <desc>Created with Sketch.</desc>
    <defs></defs>
    <g id="icons" stroke="none" stroke-width="1" fill="none" fill-rule="evenodd">
        <g id="ico-home-selected" fill-rule="nonzero">
            <polygon id="Shape" fill="#E1F685" points="10 0.9 0.7 9.4 0.7 23.3 6.9 23.3 6.9 15.8 13.1 15.8 13.1 23.3 19.3 23.3 19.3 9.4"></polygon>
            <path d="M20,24 L12.5,24 L12.5,16.5 L7.5,16.5 L7.5,24 L0,24 L0,9.1 L10,0 L20,9.1 L20,24 Z M13.8,22.6 L18.6,22.6 L18.6,9.7 L10,1.9 L1.4,9.7 L1.4,22.6 L6.2,22.6 L6.2,15.1 L13.8,15.1 L13.8,22.6 Z" id="Shape" fill="#616263"></path>
        </g>
    </g>
</svg>