<svg width="23" height="24" xmlns="http://www.w3.org/2000/svg">

 <g>
  <title>background</title>
  <rect fill="none" id="canvas_background" height="402" width="582" y="-1" x="-1"/>
 </g>
 <g>
  <title>Layer 1</title>
  <path fill="#f2d7a4" d="m19.9,13.3c0.1,-0.4 0.1,-0.9 0.1,-1.3c0,-0.4 0,-0.9 -0.1,-1.3l2.1,-1.9c0.2,-0.1 0.2,-0.3 0.1,-0.5c-0.4,-1.3 -1.1,-2.6 -2.1,-3.6c-0.1,-0.2 -0.3,-0.2 -0.5,-0.1l-2.7,0.9c-0.7,-0.5 -1.4,-1 -2.2,-1.3l-0.6,-2.8c0,-0.2 -0.2,-0.4 -0.4,-0.4c-1.4,-0.3 -2.9,-0.3 -4.3,0c-0.1,0 -0.3,0.2 -0.3,0.4l-0.6,2.8c-0.8,0.3 -1.6,0.7 -2.2,1.3l-2.7,-1c-0.2,-0.1 -0.4,0 -0.5,0.2c-1,1 -1.7,2.3 -2.2,3.6c0,0.2 0,0.4 0.2,0.5l2.2,1.9c-0.1,0.4 -0.2,0.9 -0.2,1.3c0,0.4 0,0.9 0.1,1.3l-2.1,1.9c-0.2,0.1 -0.2,0.3 -0.1,0.5c0.4,1.3 1.1,2.6 2.1,3.6c0.1,0.2 0.3,0.2 0.5,0.1l2.7,-0.9c0.7,0.5 1.4,1 2.2,1.3l0.6,2.8c0,0.2 0.2,0.4 0.4,0.4c0.7,0.1 1.4,0.2 2.1,0.2s1.4,-0.1 2.1,-0.2c0.2,0 0.3,-0.2 0.4,-0.4l0.5,-2.8c0.8,-0.3 1.6,-0.8 2.2,-1.3l2.7,0.9c0.2,0.1 0.4,0 0.5,-0.1c0.9,-1.1 1.7,-2.3 2.1,-3.7c0.1,-0.2 0,-0.4 -0.1,-0.5l-2,-1.8zm-8.4,2.9c-2.4,0 -4.2,-1.9 -4.2,-4.2c0,-2.3 1.9,-4.2 4.2,-4.2c2.3,0 4.2,1.9 4.2,4.2c0,2.3 -1.9,4.2 -4.2,4.2l0,0z" class="st0" id="fill"/>
  <path fill="#e1990f" d="m11.5,24c-0.7,0 -1.5,-0.1 -2.3,-0.2c-0.5,-0.1 -0.9,-0.5 -1,-1l-0.5,-2.4c-0.6,-0.3 -1.2,-0.6 -1.7,-1l-2.3,0.8c-0.5,0.2 -1,0.1 -1.4,-0.4c-1,-1.2 -1.8,-2.5 -2.3,-3.9c-0.2,-0.5 0,-1.1 0.4,-1.4l1.9,-1.5c0,-0.3 -0.1,-0.6 -0.1,-1c0,-0.4 0,-0.7 0.1,-1l-1.9,-1.6c-0.3,-0.2 -0.5,-0.8 -0.3,-1.4c0.4,-1.4 1.2,-2.7 2.3,-3.9c0.3,-0.4 0.9,-0.5 1.4,-0.3l2.2,0.8c0.5,-0.4 1.1,-0.7 1.7,-1l0.5,-2.4c0.1,-0.5 0.5,-0.9 1,-1c1.5,-0.3 3.1,-0.3 4.6,0c0.5,0.1 0.9,0.5 1,1l0.5,2.4c0.6,0.3 1.2,0.6 1.7,1l2.3,-0.8c0.4,-0.2 1,-0.1 1.4,0.4c1,1.2 1.8,2.5 2.3,3.9c0.2,0.5 0,1.1 -0.4,1.4l-1.9,1.5c0,0.3 0.1,0.6 0.1,1c0,0.4 0,0.7 -0.1,1l1.8,1.6c0.4,0.3 0.6,0.9 0.3,1.4c-0.4,1.4 -1.2,2.7 -2.3,3.9c-0.3,0.4 -0.9,0.5 -1.4,0.3l-2.1,-0.8c-0.5,0.4 -1.1,0.7 -1.7,1l-0.5,2.4c-0.1,0.5 -0.5,0.9 -1,1c-0.8,0.1 -1.6,0.2 -2.3,0.2zm1.7,-1.5c0,0 0,0 0,0l0,0zm-3.4,0l0,0c0,0 0,0 0,0zm-0.1,-0.2c1.3,0.2 2.3,0.2 3.6,0l0.6,-3l0.4,-0.2c0.7,-0.3 1.4,-0.7 2,-1.2l0.3,-0.3l2.9,1c0.8,-0.9 1.4,-2 1.8,-3.1l-2.3,-2l0.1,-0.4c0.1,-0.3 0.1,-0.7 0.1,-1.2c0,-0.4 0,-0.8 -0.1,-1.2l-0.1,-0.3l2.3,-2c-0.4,-1.1 -1,-2.1 -1.8,-3.1l-2.9,1l-0.3,-0.3c-0.6,-0.5 -1.3,-0.9 -2,-1.2l-0.4,-0.2l-0.6,-3c-1.2,-0.2 -2.4,-0.2 -3.6,0l-0.6,3l-0.4,0.3c-0.7,0.3 -1.4,0.7 -2,1.2l-0.3,0.2l-2.9,-1c-0.9,1 -1.5,2 -1.9,3.1l2.3,2l-0.1,0.4c-0.1,0.3 -0.1,0.7 -0.1,1.2c0,0.5 0,0.8 0.1,1.2l0.2,0.4l-2.3,2c0.4,1.1 1,2.1 1.8,3.1l2.9,-1l0.3,0.3c0.6,0.5 1.3,0.9 2,1.2l0.4,0.2l0.6,2.9zm3.8,-0.1c0,0 0,0 0,0c0,0 0,0 0,0zm-4,0c0,0 0,0 0,0c0,0 0,0 0,0zm9.9,-3.4c0,0 0,0 0,0c0,0 0,0 0,0zm-15.8,0c0,0 0,0 0,0c0,0 0,0 0,0zm-0.4,-0.1c0,0.1 0,0.1 0,0l0,0zm16.6,0l0,0c0,0 0,0 0,0zm1.7,-3c0,0.1 0.1,0.1 0,0l0,0zm-20,0l0,0c0,0.1 0,0 0,0zm19.9,-0.3c0,0 0,0 0,0c0,0 0,0 0,0zm-19.8,0c0,0 0,0 0,0c0,0 0,0 0,0zm19.8,-6.8c0,0 0,0 0,0c0,0 0,0 0,0zm-19.8,0c0,0 0,0 0,0c0,0 0,0 0,0zm19.9,-0.4c0,0.1 0,0.1 0,0l0,0zm-20.1,0l0,0c0.1,0 0,0 0,0zm1.8,-2.9c0,0 0,0 0,0l0,0zm16.6,-0.1l0,0c0,0.1 0,0.1 0,0zm-0.4,0c0,0 0,0 0,0c0,0 0,0 0,0zm-15.8,0c0,0 0,0 0,0c0,0 0,0 0,0zm9.9,-3.4c0,0 0,0 0,0c0,0 0,0 0,0zm-4,0c0,0 0,0 0,0c0,0 0,0 0,0zm3.7,-0.3c0,0 0,0 0,0l0,0zm-3.4,0l0,0c0,0 0,0 0,0zm1.7,15.5c-2.8,0 -5,-2.2 -5,-5s2.3,-5 5,-5c2.8,0 5,2.2 5,5s-2.2,5 -5,5zm0,-8.4c-1.9,0 -3.4,1.5 -3.4,3.4c0,1.9 1.5,3.4 3.4,3.4c1.9,0 3.4,-1.5 3.4,-3.4s-1.5,-3.4 -3.4,-3.4z" class="st1" id="outline"/>
 </g>
</svg>