<svg width="20" height="24" xmlns="http://www.w3.org/2000/svg">

 <g>
  <title>background</title>
  <rect fill="none" id="canvas_background" height="402" width="582" y="-1" x="-1"/>
 </g>
 <g>
  <title>Layer 1</title>
  <polygon fill="#f2d7a4" id="svg_1" points="10,0.9 0.7,9.4 0.7,23.3 6.9,23.3 6.9,15.8 13.1,15.8 13.1,23.3 19.3,23.3 19.3,9.4 " class="st0"/>
  <path fill="#e1990f" id="svg_2" d="m20,24l-7.5,0l0,-7.5l-5,0l0,7.5l-7.5,0l0,-14.9l10,-9.1l10,9.1l0,14.9zm-6.2,-1.4l4.8,0l0,-12.9l-8.6,-7.8l-8.6,7.8l0,12.9l4.8,0l0,-7.5l7.6,0l0,7.5z" class="st1"/>
 </g>
</svg>