<?xml version="1.0" ?><svg enable-background="new 0 0 512 512" id="Layer_1" version="1.1" viewBox="0 0 512 512" xml:space="preserve" xmlns="http://www.w3.org/2000/svg" xmlns:xlink="http://www.w3.org/1999/xlink"><g><g><linearGradient gradientUnits="userSpaceOnUse" id="SVGID_1_" x1="0.0000038" x2="512" y1="256" y2="256"><stop offset="0" style="stop-color:#33B49D"/><stop offset="1" style="stop-color:#00A185"/></linearGradient><circle cx="256" cy="256" fill="url(#SVGID_1_)" r="256"/><linearGradient gradientUnits="userSpaceOnUse" id="SVGID_2_" x1="42.6666679" x2="469.3333435" y1="256.0005188" y2="256.0005188"><stop offset="0" style="stop-color:#00A185"/><stop offset="1" style="stop-color:#33B49D"/></linearGradient><path d="M256,469.3338623c-117.6309357,0-213.3333282-95.7018738-213.3333282-213.3333435    c0-117.6309204,95.7023926-213.333313,213.3333282-213.333313c117.636261,0,213.3333435,95.7024002,213.3333435,213.333313    C469.3333435,373.6319885,373.636261,469.3338623,256,469.3338623z" fill="url(#SVGID_2_)"/></g><path d="M346.0256042,257.0250549h-17.1104126v-48.109848C328.9151917,173.1199951,299.7951965,144,263.9984131,144   c-35.7925415,0-64.9125519,29.1199951-64.9125519,64.9152069v48.109848h-17.1114655   c-8.1151886,0-14.6933289,6.5786743-14.6933289,14.6938782v97.5871887c0,8.1157532,6.5781403,14.6938782,14.6933289,14.6938782   h164.0512085c8.1146545,0,14.6939697-6.578125,14.6939697-14.6938782v-97.5871887   C360.719574,263.6037292,354.1402588,257.0250549,346.0256042,257.0250549z M208.8821411,208.9152069   c0-30.3925476,24.7242584-55.1189423,55.116272-55.1189423s55.1211853,24.7263947,55.1211853,55.1189423v48.109848H208.8821411   V208.9152069z M280.6640015,352.2336121h-33.3280029l6.7466736-33.4549561   c-4.0724182-3.037323-6.7466736-7.8501282-6.7466736-13.3226624c0-9.203186,7.4608002-16.6650696,16.6640015-16.6650696   c9.2026672,0,16.6640015,7.4618835,16.6640015,16.6650696c0,5.4725342-2.6736145,10.2853394-6.7477417,13.3226624   L280.6640015,352.2336121z" opacity="0.3"/><path d="M338.0256042,249.0250702h-17.1104126v-48.1098633   C320.9151917,165.1199951,291.7951965,136,255.9983978,136c-35.7925262,0-64.9125366,29.1199951-64.9125366,64.9152069v48.1098633   h-17.1114655c-8.1151886,0-14.6933289,6.5786591-14.6933289,14.6938629v97.5871887   c0,8.1157532,6.5781403,14.6938782,14.6933289,14.6938782h164.0512085c8.1146545,0,14.6939697-6.578125,14.6939697-14.6938782   v-97.5871887C352.719574,255.6037292,346.1402588,249.0250702,338.0256042,249.0250702z M200.8821411,200.9152069   c0-30.3925476,24.7242584-55.1189423,55.1162567-55.1189423s55.1212006,24.7263947,55.1212006,55.1189423v48.1098633H200.8821411   V200.9152069z M272.6640015,344.2336121h-33.3280029l6.7466736-33.4549561   c-4.0724182-3.037323-6.7466736-7.8501282-6.7466736-13.3226624c0-9.203186,7.4608002-16.6650696,16.6640015-16.6650696   c9.2026672,0,16.6640015,7.4618835,16.6640015,16.6650696c0,5.4725342-2.6736145,10.2853394-6.7477417,13.3226624   L272.6640015,344.2336121z" fill="#FFFFFF"/></g></svg>