<?xml version="1.0" encoding="UTF-8"?>
<svg width="340px" height="105px" viewBox="0 0 340 105" version="1.1" xmlns="http://www.w3.org/2000/svg" xmlns:xlink="http://www.w3.org/1999/xlink">
    <!-- Generator: sketchtool 48.2 (47327) - http://www.bohemiancoding.com/sketch -->
    <title>canoe-logo</title>
    <desc>Created with sketchtool.</desc>
    <defs></defs>
    <g id="canoe-removable-drive-icon" stroke="none" stroke-width="1" fill="none" fill-rule="evenodd" transform="translate(-342.000000, -299.000000)">
        <g id="bitpay-removable-drive-icon" fill="#FFFFFF" fill-rule="nonzero">
            <g id="canoe-logo" transform="translate(342.000000, 299.000000)">
                <g id="Group" transform="translate(106.000000, 27.000000)">
                    <path d="M25.5860444,47.1249147 C14.4657317,47.1249147 6.80173242,37.4090621 6.80173242,26.646887 C6.80173242,15.8847119 14.3154572,6.16885938 25.4357699,6.16885938 C34.7527886,6.16885938 39.411298,12.1478456 39.411298,12.1478456 L43.6189839,8.11202989 C43.6189839,8.11202989 37.3074551,0.339347864 25.4357699,0.339347864 C10.7088693,0.339347864 0.339929101,11.8488963 0.339929101,26.646887 C0.339929101,41.4448778 10.8591438,52.9544262 25.4357699,52.9544262 C37.3074551,52.9544262 44.2200819,44.5838456 44.2200819,44.5838456 L40.012396,40.3985552 C40.312945,40.2490806 34.9030631,47.1249147 25.5860444,47.1249147 Z" id="Shape"></path>
                    <path d="M67.6629032,1.08672114 L47.6763953,51.9081036 L54.1381986,51.9081036 L59.397806,38.3059101 L81.3378824,38.3059101 L86.5974897,51.9081036 L93.059293,51.9081036 L73.2230596,1.23619579 L67.6629032,1.23619579 L67.6629032,1.08672114 Z M61.8021979,32.4763986 L70.5181187,9.90572574 L79.2340394,32.4763986 L61.8021979,32.4763986 Z" id="Shape"></path>
                    <polygon id="Shape" points="132.73176 41.7438271 105.381802 1.08672114 99.0702729 1.08672114 99.0702729 52.0575783 105.231527 52.0575783 105.231527 11.4004723 132.581485 52.0575783 138.893014 52.0575783 138.893014 1.08672114 132.73176 1.08672114"></polygon>
                    <path d="M171.352305,0.18987321 C156.625405,0.18987321 146.256465,11.6994216 146.256465,26.4974124 C146.256465,41.2954032 156.775679,52.8049516 171.352305,52.8049516 C186.079206,52.8049516 196.448146,41.2954032 196.448146,26.4974124 C196.598421,11.9983709 186.079206,0.18987321 171.352305,0.18987321 Z M171.352305,47.1249147 C160.231993,47.1249147 152.718268,37.5585368 152.718268,26.646887 C152.718268,15.8847119 160.231993,6.16885938 171.352305,6.16885938 C182.472618,6.16885938 189.986343,15.7352373 189.986343,26.646887 C189.986343,37.4090621 182.472618,47.1249147 171.352305,47.1249147 Z" id="Shape"></path>
                    <polygon id="Shape" points="209.972851 46.2280668 209.972851 28.7395322 231.462104 28.7395322 231.462104 23.0594953 209.972851 23.0594953 209.972851 6.91623266 233.265398 6.91623266 233.265398 1.08672114 203.961871 1.08672114 203.961871 52.0575783 233.716221 52.0575783 233.716221 46.2280668"></polygon>
                </g>
                <polygon id="Shape" points="47 61 47 105 94 79.3835616 94 61"></polygon>
                <polygon id="Shape" points="47 61 33.2475884 61 1.51125402 61 0 61 0 79.3835616 47 105"></polygon>
                <polygon id="Shape" points="47 0 0.302250804 26.1520468 0 52 33.2475884 52 33.2475884 39.8362573 47 30.5614035"></polygon>
                <polygon id="Shape" points="47 0 94 26.1520468 93.6987179 52 60.5576923 52 60.5576923 39.8362573 47 30.5614035"></polygon>
            </g>
        </g>
    </g>
</svg>