<?xml version="1.0" encoding="UTF-8"?>
<svg width="987px" height="306px" viewBox="0 0 987 306" version="1.1" xmlns="http://www.w3.org/2000/svg" xmlns:xlink="http://www.w3.org/1999/xlink">
    <!-- Generator: Sketch 48.2 (47327) - http://www.bohemiancoding.com/sketch -->
    <title>canoe-logo</title>
    <desc>Created with Sketch.</desc>
    <defs></defs>
    <g id="icons" stroke="none" stroke-width="1" fill="none" fill-rule="evenodd">
        <g id="logo-new" transform="translate(-264.000000, -222.000000)" fill-rule="nonzero">
            <g id="canoe-logo" transform="translate(264.000000, 222.000000)">
                <g id="Group" transform="translate(307.755619, 76.381853)" fill="#FFFFFF">
                    <path d="M74.3526077,137.818147 C42.0371691,137.818147 19.7657181,109.403861 19.7657181,77.9295753 C19.7657181,46.4552896 41.600474,18.0410039 73.9159125,18.0410039 C100.99101,18.0410039 114.528558,35.5267181 114.528558,35.5267181 L126.756022,23.723861 C126.756022,23.723861 108.414827,0.992432432 73.9159125,0.992432432 C31.1197912,0.992432432 0.987828156,34.6524324 0.987828156,77.9295753 C0.987828156,121.206718 31.5564863,154.866718 73.9159125,154.866718 C108.414827,154.866718 128.502802,130.386718 128.502802,130.386718 L116.275339,118.146718 C117.148729,117.709575 101.427705,137.818147 74.3526077,137.818147 Z" id="Shape"></path>
                    <path d="M196.62724,3.17814672 L138.54679,151.806718 L157.32468,151.806718 L172.609009,112.026718 L236.366496,112.026718 L251.650825,151.806718 L270.428715,151.806718 L212.784959,3.61528958 L196.62724,3.61528958 L196.62724,3.17814672 Z M179.596131,94.9781467 L204.924447,28.9695753 L230.252764,94.9781467 L179.596131,94.9781467 Z" id="Shape"></path>
                    <polygon id="Shape" points="385.716225 122.081004 306.237714 3.17814672 287.896519 3.17814672 287.896519 152.243861 305.801019 152.243861 305.801019 33.3410039 385.27953 152.243861 403.620725 152.243861 403.620725 3.17814672 385.716225 3.17814672"></polygon>
                    <path d="M497.94687,0.555289575 C455.150749,0.555289575 425.018786,34.2152896 425.018786,77.4924324 C425.018786,120.769575 455.587444,154.429575 497.94687,154.429575 C540.742992,154.429575 570.874955,120.769575 570.874955,77.4924324 C571.31165,35.0895753 540.742992,0.555289575 497.94687,0.555289575 Z M497.94687,137.818147 C465.631432,137.818147 443.796676,109.841004 443.796676,77.9295753 C443.796676,46.4552896 465.631432,18.0410039 497.94687,18.0410039 C530.262309,18.0410039 552.097065,46.0181467 552.097065,77.9295753 C552.097065,109.403861 530.262309,137.818147 497.94687,137.818147 Z" id="Shape"></path>
                    <polygon id="Shape" points="610.177515 135.19529 610.177515 84.0495753 672.624917 84.0495753 672.624917 67.4381467 610.177515 67.4381467 610.177515 20.2267181 677.865258 20.2267181 677.865258 3.17814672 592.70971 3.17814672 592.70971 152.243861 679.175343 152.243861 679.175343 135.19529"></polygon>
                </g>
                <polygon id="Shape" fill="#14C4FB" points="136.248876 178.354286 136.248876 306 271.624362 231.685714 271.624362 178.354286"></polygon>
                <polygon id="Shape" fill="#00B4FF" points="136.248876 178.354286 96.5096207 178.354286 4.80364628 178.354286 0.436695116 178.354286 0.436695116 231.685714 136.248876 306"></polygon>
                <polygon id="Shape" fill="#24D14D" points="135.812181 0 0.873390232 75.1885714 0 149.502857 96.0729255 149.502857 96.0729255 114.531429 135.812181 87.8657143"></polygon>
                <polygon id="Shape" fill="#2BE078" points="135.812181 0 272.061057 75.1885714 271.187667 149.502857 175.114742 149.502857 175.114742 114.531429 135.812181 87.8657143"></polygon>
            </g>
        </g>
    </g>
</svg>