<?xml version="1.0" encoding="UTF-8"?>
<svg width="18px" height="18px" viewBox="0 0 18 18" version="1.1" xmlns="http://www.w3.org/2000/svg" xmlns:xlink="http://www.w3.org/1999/xlink">
    <!-- Generator: Sketch 49 (51002) - http://www.bohemiancoding.com/sketch -->
    <title>icon-gift</title>
    <desc>Created with Sketch.</desc>
    <defs></defs>
    <g id="Page-1" stroke="none" stroke-width="1" fill="none" fill-rule="evenodd">
        <g id="icon-gift" fill="#9B9BAB" fill-rule="nonzero">
            <path d="M17.1,3.79506438 L12.6,3.79506438 C12.87,3.41652361 13.05,2.89699571 13.05,2.37553648 C13.05,1.05064378 12.06,0.00965665236 10.8,0.00965665236 C10.08,0.00965665236 9.40591837,0.388197425 9,0.956008584 C8.59408163,0.388197425 7.92,0.00965665236 7.2,0.00965665236 C5.94,0.00965665236 4.95,1.05064378 4.95,2.37553648 C4.95,2.89699571 5.13,3.41652361 5.4,3.79506438 L0.9,3.79506438 C0.405918367,3.79506438 0,4.22188841 0,4.74141631 L0,8.52682403 L0.9,8.52682403 L0.9,17.0439914 C0.9,17.5654506 1.30591837,17.9903433 1.8,17.9903433 L8.55,17.9903433 L9.45,17.9903433 L16.2,17.9903433 C16.6959184,17.9903433 17.1,17.5654506 17.1,17.0439914 L17.1,8.52682403 L18,8.52682403 L18,4.74141631 C18,4.22188841 17.5940816,3.79506438 17.1,3.79506438 Z M8.55,17.0439914 L1.8,17.0439914 L1.8,8.52682403 L8.55,8.52682403 L8.55,17.0439914 Z M8.55,7.5804721 L0.9,7.5804721 L0.9,4.74141631 L7.2,4.74141631 L8.55,4.74141631 L8.55,7.5804721 Z M8.55,3.79506438 L7.2,3.79506438 C6.43591837,3.79506438 5.85,3.17896996 5.85,2.37553648 C5.85,1.572103 6.43591837,0.956008584 7.2,0.956008584 C7.96408163,0.956008584 8.55,1.572103 8.55,2.37553648 L8.55,3.79506438 Z M9.45,2.37553648 C9.45,1.572103 10.0340816,0.956008584 10.8,0.956008584 C11.5640816,0.956008584 12.15,1.572103 12.15,2.37553648 C12.15,3.17896996 11.5640816,3.79506438 10.8,3.79506438 L9.45,3.79506438 L9.45,2.37553648 Z M16.2,17.0439914 L9.45,17.0439914 L9.45,8.52682403 L16.2,8.52682403 L16.2,17.0439914 Z M17.1,7.5804721 L9.45,7.5804721 L9.45,4.74141631 L10.8,4.74141631 L17.1,4.74141631 L17.1,7.5804721 Z" id="Shape"></path>
        </g>
    </g>
</svg>