<svg xmlns="http://www.w3.org/2000/svg" xmlns:xlink="http://www.w3.org/1999/xlink" viewBox="0 0 359 414.54"><defs><style>.cls-1{fill:none;stroke-miterlimit:10;stroke-width:4px;stroke:url(#linear-gradient);}.cls-2{fill:url(#linear-gradient-2);}.cls-3{fill:url(#linear-gradient-3);}.cls-4{fill:url(#linear-gradient-4);}.cls-5{fill:url(#linear-gradient-5);}.cls-6{fill:url(#linear-gradient-6);}.cls-7{fill:url(#linear-gradient-7);}</style><linearGradient id="linear-gradient" x1="-1.62" y1="307.99" x2="360.62" y2="106.55" gradientUnits="userSpaceOnUse"><stop offset="0" stop-color="#1eb4fc"/><stop offset="1" stop-color="#22c4fb"/></linearGradient><linearGradient id="linear-gradient-2" x1="-129.7" y1="24.47" x2="-104.15" y2="24.47" gradientTransform="matrix(0.97, 0.26, -0.26, 0.97, 302.32, 206.02)" xlink:href="#linear-gradient"/><linearGradient id="linear-gradient-3" x1="-206.14" y1="35.55" x2="-51.32" y2="35.55" gradientTransform="matrix(0.97, 0.26, -0.26, 0.97, 302.32, 206.02)" xlink:href="#linear-gradient"/><linearGradient id="linear-gradient-4" x1="-129.74" y1="17.06" x2="-104.1" y2="31.87" gradientTransform="matrix(0.97, 0.26, -0.26, 0.97, 302.32, 206.02)" xlink:href="#linear-gradient"/><linearGradient id="linear-gradient-5" x1="-149.69" y1="14.67" x2="-71.93" y2="59.56" gradientTransform="matrix(0.97, 0.26, -0.26, 0.97, 302.32, 206.02)" xlink:href="#linear-gradient"/><linearGradient id="linear-gradient-6" x1="-129.7" y1="24.47" x2="-104.15" y2="24.47" gradientTransform="matrix(0.97, 0.26, -0.26, 0.97, 302.32, 206.02)" xlink:href="#linear-gradient"/><linearGradient id="linear-gradient-7" x1="-206.14" y1="35.55" x2="-104.15" y2="35.55" gradientTransform="matrix(0.97, 0.26, -0.26, 0.97, 302.32, 206.02)" xlink:href="#linear-gradient"/></defs><title>feeless</title><g id="Layer_2" data-name="Layer 2"><g id="Layer_1-2" data-name="Layer 1"><polygon class="cls-1" points="2 104.79 2 309.75 179.5 412.23 357 309.75 357 104.79 179.5 2.31 2 104.79"/><path class="cls-2" d="M194.07,206.11a7,7,0,0,1-10.85,6.29q-3.5-2.4-7.17-8.75c-2.46-4.22-3.79-7.75-4-10.57a7,7,0,0,1,10.85-6.29c2.33,1.61,4.71,4.53,7.17,8.75S193.83,203.3,194.07,206.11Z"/><path class="cls-3" d="M247.81,161.3,200,135.46,91,198.66l46.61,80.42,109-63.2Zm-93.5,67.32-2.27-3.9a19.81,19.81,0,0,1-2.49.85,14.17,14.17,0,0,1-2.35.44l-1.31-4.29a14.06,14.06,0,0,0,2.89-.64,14.61,14.61,0,0,0,2.63-1.2,4.61,4.61,0,0,0,1.63-1.56,1.89,1.89,0,0,0,0-2,2.25,2.25,0,0,0-1.54-1.11,13,13,0,0,0-3.09,0,23.62,23.62,0,0,1-3.24.13,9.07,9.07,0,0,1-2.47-.44,5.14,5.14,0,0,1-1.89-1.11,8.08,8.08,0,0,1-1.5-1.9,6.91,6.91,0,0,1-.84-2.25,6,6,0,0,1,.65-4,7.62,7.62,0,0,1,1.24-1.67l-2.43-4.19,4.54-2.63,2.28,3.93a14.6,14.6,0,0,1,2.29-.72,11.21,11.21,0,0,1,2.07-.32l1.25,4.36a13.4,13.4,0,0,0-2.33.38,8.93,8.93,0,0,0-2.41,1,4.18,4.18,0,0,0-1.54,1.45,1.63,1.63,0,0,0,.08,1.66,1.74,1.74,0,0,0,.58.64,2.13,2.13,0,0,0,.87.29,7,7,0,0,0,1.25,0l1.7-.1c.72,0,1.49-.08,2.32-.09a11.54,11.54,0,0,1,2.49.22,7.38,7.38,0,0,1,2.35,1,5.56,5.56,0,0,1,1.89,2,7.34,7.34,0,0,1,1,4.74,7.7,7.7,0,0,1-2.17,4.33l2.41,4.15Zm47.41-14.26a23.21,23.21,0,0,1-15.18,8.8,17.2,17.2,0,0,1-7.87-1.08,21.32,21.32,0,0,1-7-4.62,37.89,37.89,0,0,1-9.74-16.82,21.37,21.37,0,0,1-.52-8.42,17,17,0,0,1,3-7.36,20.54,20.54,0,0,1,6.73-5.9,20.76,20.76,0,0,1,8.43-2.9,17.19,17.19,0,0,1,7.91,1.06,21.41,21.41,0,0,1,7.05,4.63,38.07,38.07,0,0,1,9.74,16.8,21.43,21.43,0,0,1,.51,8.43A17.22,17.22,0,0,1,201.72,214.36Zm36.48-42.74a5.16,5.16,0,1,1,6.32-3.66A5.15,5.15,0,0,1,238.2,171.62Z"/><path class="cls-4" d="M190.58,212.58a6.38,6.38,0,0,1-7.36-.18c-2.32-1.6-4.72-4.52-7.17-8.75a39,39,0,0,1-3-6.23,18.09,18.09,0,0,1-1-4.34,6.39,6.39,0,0,1,3.5-6.47,7.82,7.82,0,0,1,2.66-1,6.27,6.27,0,0,1,4.68,1.17c2.34,1.61,4.72,4.53,7.18,8.75s3.79,7.76,4,10.58A6.41,6.41,0,0,1,190.58,212.58Z"/><path class="cls-5" d="M247.89,161.74,200,135.46,182.35,176a16.7,16.7,0,0,1,5.07,1.12,21.21,21.21,0,0,1,7.05,4.62,38.07,38.07,0,0,1,9.74,16.8,21.43,21.43,0,0,1,.51,8.43,17.06,17.06,0,0,1-3,7.38,23.16,23.16,0,0,1-15.17,8.8,17.21,17.21,0,0,1-7.87-1.08,21.53,21.53,0,0,1-7-4.62,33.07,33.07,0,0,1-4.74-5.81l-29.3,67.43,109-63.2Zm-9.69,9.89a5.17,5.17,0,1,1,6.32-3.67A5.19,5.19,0,0,1,238.2,171.63Zm-62.68,15a6.39,6.39,0,0,0-3.5,6.47,18.09,18.09,0,0,0,1,4.34l5.13-11.8A7.82,7.82,0,0,0,175.52,186.61Z"/><path class="cls-6" d="M190.58,212.58a6.38,6.38,0,0,1-7.36-.18c-2.32-1.6-4.72-4.52-7.17-8.75a39,39,0,0,1-3-6.23,18.09,18.09,0,0,1-1-4.34,6.39,6.39,0,0,1,3.5-6.47,7.82,7.82,0,0,1,2.66-1,6.27,6.27,0,0,1,4.68,1.17c2.34,1.61,4.72,4.53,7.18,8.75s3.79,7.76,4,10.58A6.41,6.41,0,0,1,190.58,212.58Z"/><path class="cls-7" d="M91,198.66l46.61,80.42,29.3-67.43c-.43-.63-.82-1.29-1.23-2a35.33,35.33,0,0,1-3.77-9,21.36,21.36,0,0,1-.51-8.42,16.84,16.84,0,0,1,3-7.36,23.13,23.13,0,0,1,15.17-8.8,17.9,17.9,0,0,1,2.83-.05L200,135.46Zm66.61,14.11a7.28,7.28,0,0,1,1,4.74,7.79,7.79,0,0,1-2.17,4.33l2.42,4.16-4.54,2.63L152,224.72a18.81,18.81,0,0,1-2.49.85,14.17,14.17,0,0,1-2.35.44l-1.3-4.29a15,15,0,0,0,2.88-.63,14.67,14.67,0,0,0,2.63-1.21,4.7,4.7,0,0,0,1.63-1.56,1.85,1.85,0,0,0,0-2,2.17,2.17,0,0,0-1.53-1.1,12.37,12.37,0,0,0-3.09,0,23.48,23.48,0,0,1-3.23.13,9,9,0,0,1-2.48-.44,5.32,5.32,0,0,1-1.9-1.11,8,8,0,0,1-1.48-1.9,6.72,6.72,0,0,1-.85-2.25,6.51,6.51,0,0,1,0-2.11,6,6,0,0,1,.67-1.91,8,8,0,0,1,1.24-1.67l-2.42-4.18,4.53-2.64,2.28,3.93a13.61,13.61,0,0,1,2.29-.72,10.38,10.38,0,0,1,2.07-.31l1.25,4.35a13.4,13.4,0,0,0-2.33.38,9.2,9.2,0,0,0-2.41,1,4.1,4.1,0,0,0-1.54,1.45,1.63,1.63,0,0,0,.08,1.66,1.84,1.84,0,0,0,.59.64,2,2,0,0,0,.86.29,7,7,0,0,0,1.25,0l1.7-.1c.72,0,1.49-.08,2.32-.09a11.54,11.54,0,0,1,2.49.22,7.47,7.47,0,0,1,2.35,1A5.57,5.57,0,0,1,157.58,212.77Zm36.49-6.65q-.36-4.23-4-10.58c-2.46-4.22-4.84-7.14-7.18-8.75a6.27,6.27,0,0,0-4.68-1.17l-5.13,11.8a39,39,0,0,0,3,6.23c2.45,4.23,4.85,7.15,7.17,8.75a7,7,0,0,0,10.85-6.28Z"/></g></g></svg>