<svg xmlns="http://www.w3.org/2000/svg" xmlns:xlink="http://www.w3.org/1999/xlink" viewBox="0 0 359 414.54"><defs><style>.cls-1{fill:none;stroke-miterlimit:10;stroke-width:4px;stroke:url(#linear-gradient);}.cls-2{fill:url(#linear-gradient-2);}.cls-3{fill:url(#linear-gradient-3);}.cls-4{fill:url(#linear-gradient-4);}</style><linearGradient id="linear-gradient" x1="-1.62" y1="307.99" x2="360.62" y2="106.55" gradientUnits="userSpaceOnUse"><stop offset="0" stop-color="#1eb4fc"/><stop offset="1" stop-color="#22c4fb"/></linearGradient><linearGradient id="linear-gradient-2" x1="103.11" y1="249.74" x2="264.43" y2="160.04" xlink:href="#linear-gradient"/><linearGradient id="linear-gradient-3" x1="169.05" y1="201.23" x2="255.19" y2="250.97" xlink:href="#linear-gradient"/><linearGradient id="linear-gradient-4" x1="157.88" y1="110.08" x2="157.88" y2="274.13" xlink:href="#linear-gradient"/></defs><title>secure</title><g id="Layer_2" data-name="Layer 2"><g id="Layer_1-2" data-name="Layer 1"><polygon class="cls-1" points="2 104.79 2 309.75 179.5 412.23 357 309.75 357 104.79 179.5 2.31 2 104.79"/><path class="cls-2" d="M179.5,110.08,95.33,158.67v60.66A63.28,63.28,0,0,0,127,274.13l52.54,30.33L232,274.13a63.27,63.27,0,0,0,31.64-54.8V158.67Zm38,84.61-45.07,46-30.16-24.78a10.17,10.17,0,1,1,12.91-15.71l15.76,13,32-32.72a10.17,10.17,0,0,1,14.53,14.22Z"/><path class="cls-3" d="M220.43,133.71l-51.69,77.65,2.22,1.83,32-32.72a10.17,10.17,0,0,1,14.53,14.23l-45.07,46-15-12.35L127,274.13l52.54,30.33L232,274.13a63.28,63.28,0,0,0,31.64-54.8V158.67Z"/><path class="cls-4" d="M155.2,200.23l13.54,11.13,51.69-77.65L179.5,110.08,95.33,158.67v60.66A63.27,63.27,0,0,0,127,274.13l30.46-45.76-15.13-12.43a10.17,10.17,0,1,1,12.91-15.71Z"/></g></g></svg>