<?xml version="1.0" encoding="utf-8"?>
<!-- Generator: Adobe Illustrator 21.1.0, SVG Export Plug-In . SVG Version: 6.00 Build 0)  -->
<svg version="1.1" id="Layer_1" xmlns="http://www.w3.org/2000/svg" xmlns:xlink="http://www.w3.org/1999/xlink" x="0px" y="0px"
	 viewBox="0 0 240 68" style="enable-background:new 0 0 240 68;" xml:space="preserve">
<style type="text/css">
	.st0{fill:url(#SVGID_1_);}
	.st1{fill:url(#SVGID_2_);}
	.st2{opacity:0.15;fill:#FFFFFF;}
	.st3{fill:url(#SVGID_3_);}
	.st4{fill:url(#SVGID_4_);}
	.st5{opacity:0.25;fill:#FFFFFF;}
	.st6{fill:#FFFFFF;}
</style>
<linearGradient id="SVGID_1_" gradientUnits="userSpaceOnUse" x1="30.9526" y1="53.5" x2="61.9053" y2="53.5">
	<stop  offset="0" style="stop-color:#1FC1FF"/>
	<stop  offset="1" style="stop-color:#1DB1E5"/>
</linearGradient>
<polygon class="st0" points="53.9,39 39.9,39 31,39 31,68 61.9,51 61.9,39 "/>
<linearGradient id="SVGID_2_" gradientUnits="userSpaceOnUse" x1="30.9526" y1="53.5" x2="0" y2="53.5">
	<stop  offset="0" style="stop-color:#1FC1FF"/>
	<stop  offset="1" style="stop-color:#1DB1E5"/>
</linearGradient>
<polygon class="st1" points="31,39 22,39 1,39 0,39 0,51 31,68 "/>
<polygon class="st2" points="53.9,39 39.9,39 31,39 31,68 61.9,51 61.9,39 "/>
<linearGradient id="SVGID_3_" gradientUnits="userSpaceOnUse" x1="5.1121" y1="36.9514" x2="27.5726" y2="-1.9514">
	<stop  offset="0" style="stop-color:#07A9A5"/>
	<stop  offset="1" style="stop-color:#21ED97"/>
</linearGradient>
<polygon class="st3" points="31,0 0,17 0,34 22,34 22,26 31,21 "/>
<linearGradient id="SVGID_4_" gradientUnits="userSpaceOnUse" x1="218.2068" y1="36.9514" x2="240.6674" y2="-1.9514" gradientTransform="matrix(-1 0 0 1 275 0)">
	<stop  offset="0" style="stop-color:#07A9A5"/>
	<stop  offset="1" style="stop-color:#21ED97"/>
</linearGradient>
<polygon class="st4" points="31,0 61.9,17 61.9,34 39.9,34 39.9,26 31,21 "/>
<polygon class="st5" points="31,0 61.9,17 61.9,34 39.9,34 39.9,26 31,21 "/>
<polygon class="st6" points="166.6,42.8 146.4,17.1 146.3,17 142.2,17 142.2,50.9 146.6,50.9 146.6,24.5 167.3,50.8 167.4,50.9 
	171,50.9 171,17 166.6,17 "/>
<path class="st6" d="M210.6,33.7c0-2.2-0.4-4.3-1.2-6.3c-0.8-2-1.9-3.9-3.4-5.4c-1.5-1.5-3.2-2.8-5.3-3.7c-2-0.9-4.3-1.4-6.8-1.4
	c-2.5,0-4.8,0.5-6.8,1.4c-2.1,0.9-3.8,2.2-5.3,3.7c-1.5,1.5-2.6,3.4-3.4,5.4c-0.8,2.1-1.2,4.2-1.2,6.6c0,2.2,0.4,4.4,1.2,6.4
	c0.8,2,1.9,3.9,3.4,5.4c1.5,1.5,3.2,2.8,5.3,3.7c2,0.9,4.3,1.4,6.8,1.4s4.8-0.5,6.8-1.4c2-0.9,3.8-2.2,5.3-3.7
	c1.5-1.5,2.6-3.4,3.4-5.4c0.8-2,1.2-4.1,1.2-6.3l0-0.2L210.6,33.7L210.6,33.7z M194,46.9c-1.8,0-3.4-0.3-4.9-1
	c-1.5-0.7-2.8-1.6-3.9-2.8c-1.1-1.2-2-2.5-2.6-4.1c-0.6-1.6-0.9-3.2-0.9-5.1c0-1.8,0.3-3.5,0.9-5c0.6-1.5,1.4-2.9,2.5-4.1
	c1.1-1.2,2.4-2.1,3.8-2.7c1.5-0.7,3.1-1,4.9-1c1.8,0,3.4,0.3,4.9,1c1.5,0.7,2.8,1.6,3.9,2.8c1.1,1.2,1.9,2.5,2.6,4.1
	c0.6,1.6,0.9,3.2,0.9,5.1c0,1.8-0.3,3.5-0.9,5c-0.6,1.5-1.5,2.9-2.5,4.1c-1.1,1.2-2.4,2.1-3.8,2.7C197.4,46.5,195.7,46.9,194,46.9z"
	/>
<polygon class="st6" points="122.3,17 118.4,17 103.1,50.8 107.7,50.8 120.3,22.6 132.8,50.8 137.6,50.8 "/>
<rect x="116.7" y="36.7" class="st6" width="7.3" height="4.1"/>
<polygon class="st6" points="219.6,46.7 219.6,35.9 236.1,35.9 236.1,31.7 219.6,31.7 219.6,21.1 239.8,21.1 239.8,17 215.1,17 
	215.1,50.8 240,50.8 240,46.7 "/>
<path class="st6" d="M99.5,42.1l-0.2,0.2c-1.5,1.4-3,2.6-4.6,3.4c-1.5,0.8-3.4,1.2-5.5,1.2c-1.7,0-3.3-0.3-4.8-1
	c-1.5-0.7-2.7-1.6-3.8-2.7C79.5,42,78.6,40.6,78,39c-0.6-1.6-0.9-3.3-0.9-5.2c0-1.8,0.3-3.5,0.9-5c0.6-1.6,1.5-2.9,2.5-4.1
	c1.1-1.1,2.4-2.1,3.8-2.7c1.5-0.6,3.1-1,4.8-1c2.1,0,4,0.4,5.5,1.2c1.5,0.8,3,1.9,4.3,3.1l0.3,0.3l1.9-4.2c-0.6-0.5-1.1-1-1.7-1.4
	c-0.9-0.6-1.8-1.2-2.9-1.6c-1-0.5-2.2-0.8-3.3-1.1c-1.2-0.2-2.6-0.4-4-0.4c-2.4,0-4.6,0.5-6.7,1.3c-2,0.9-3.8,2.1-5.3,3.7
	c-1.5,1.5-2.6,3.4-3.4,5.4c-0.8,2.1-1.2,4.3-1.2,6.7c0,2.3,0.4,4.6,1.2,6.6c0.8,2.1,2,3.9,3.4,5.4c1.5,1.5,3.2,2.7,5.2,3.6
	c2,0.9,4.2,1.3,6.6,1.3c1.5,0,2.9-0.1,4.1-0.4s2.4-0.7,3.4-1.2c1.1-0.5,2.1-1.1,3-1.8c0.6-0.5,1.2-1,1.8-1.5L99.5,42.1z"/>
</svg>
