<svg xmlns="http://www.w3.org/2000/svg" width="1730" height="2000" viewBox="0 0 1730 2000"><path fill="#6ccef5" d="m865 1000v-1000l865 500-865 500"/><path fill="#1fb0e6" d="m1730 1000v-500l-865 500h865"/><path fill="#1993d2" d="m865 2000l865-500v-500h-865v1000"/><path fill="#49b749" d="m0 1500l865-500v1000l-865-500"/><path fill="#bbd631" d="m0 1000v500l865-500h-865"/><path fill="#40b299" d="m0 500l865 500h-865v-500"/><path fill="#2c839a" d="M865 0 0 500 865 1000 865 0z"/><path fill="#c5c7c9" d="m579.98 835.29l285.02-164.7v329.41l-285.02-164.71"/><path fill="#f0f1f1" d="m1150.02 835.29l-285.02 164.71v-329.41l285.02 164.7"/><path fill="#dedfe1" d="m1150.02 1000h-285.02l285.02-164.71v164.71"/><path fill="#cbcdcf" d="m865 1329.41v-329.41h285.02v164.71l-285.02 164.7"/><path fill="#d9dadc" d="m579.98 1164.71l285.02-164.71v329.41l-285.02-164.7"/><path fill="#ebeced" d="m579.98 1000h285.02l-285.02 164.71v-164.71"/><path fill="#dcddde" d="m579.98 835.29l285.02 164.71h-285.02v-164.71"/></svg>