<?xml version="1.0" encoding="UTF-8" standalone="no"?>
<!-- Created with Inkscape (http://www.inkscape.org/) -->

<svg
   xmlns:dc="http://purl.org/dc/elements/1.1/"
   xmlns:cc="http://creativecommons.org/ns#"
   xmlns:rdf="http://www.w3.org/1999/02/22-rdf-syntax-ns#"
   xmlns:svg="http://www.w3.org/2000/svg"
   xmlns="http://www.w3.org/2000/svg"
   xmlns:sodipodi="http://sodipodi.sourceforge.net/DTD/sodipodi-0.dtd"
   xmlns:inkscape="http://www.inkscape.org/namespaces/inkscape"
   width="52.91666mm"
   height="58.208328mm"
   viewBox="0 0 52.91666 58.208328"
   version="1.1"
   id="svg5828"
   sodipodi:docname="onboarding-tour-currency-bg.svg"
   inkscape:version="0.92.2 (5c3e80d, 2017-08-06)">
  <defs
     id="defs5822" />
  <sodipodi:namedview
     id="base"
     pagecolor="#ffffff"
     bordercolor="#666666"
     borderopacity="1.0"
     inkscape:pageopacity="0.0"
     inkscape:pageshadow="2"
     inkscape:zoom="0.98994949"
     inkscape:cx="-34.522863"
     inkscape:cy="115.7822"
     inkscape:document-units="mm"
     inkscape:current-layer="layer1"
     showgrid="false"
     inkscape:window-width="1600"
     inkscape:window-height="878"
     inkscape:window-x="-8"
     inkscape:window-y="-8"
     inkscape:window-maximized="1"
     fit-margin-top="0"
     fit-margin-left="0"
     fit-margin-right="0"
     fit-margin-bottom="0" />
  <metadata
     id="metadata5825">
    <rdf:RDF>
      <cc:Work
         rdf:about="">
        <dc:format>image/svg+xml</dc:format>
        <dc:type
           rdf:resource="http://purl.org/dc/dcmitype/StillImage" />
        <dc:title></dc:title>
      </cc:Work>
    </rdf:RDF>
  </metadata>
  <g
     inkscape:label="Layer 1"
     inkscape:groupmode="layer"
     id="layer1"
     transform="translate(-96.66774,-109.21259)">
    <g
       id="g5790"
       transform="translate(-207.60309,-386.22491)">
      <path
         inkscape:connector-curvature="0"
         id="path1742-9-6"
         d="m 304.27083,511.3125 26.45833,-15.875 26.45833,15.875 v 26.45833 l -26.45833,15.875 -26.45833,-15.875 V 511.3125"
         style="opacity:0.3;fill:#123238;fill-opacity:1;stroke:none;stroke-width:0.26458326px;stroke-linecap:butt;stroke-linejoin:miter;stroke-opacity:1" />
      <path
         inkscape:connector-curvature="0"
         id="path5716"
         d="m 325.4375,519.25 v 10.58333 l 2.64583,2.64583 h 5.29167 l 2.64583,-2.64583 V 519.25 l -2.64583,-2.64584 c 0,0 -5.29167,0 -5.29167,0 L 325.4375,519.25"
         style="fill:#2b839a;fill-opacity:1;stroke:#000000;stroke-width:0.26458332px;stroke-linecap:butt;stroke-linejoin:miter;stroke-opacity:1" />
      <path
         inkscape:connector-curvature="0"
         id="path5651"
         d="m 325.4375,519.25 v 10.58333"
         style="fill:#2b839a;fill-opacity:1;stroke:#000000;stroke-width:0.26458332px;stroke-linecap:butt;stroke-linejoin:miter;stroke-opacity:1" />
      <path
         inkscape:connector-curvature="0"
         id="path5653"
         d="m 336.02083,519.25 v 10.58333"
         style="fill:#2b839a;fill-opacity:1;stroke:#000000;stroke-width:0.26458332px;stroke-linecap:butt;stroke-linejoin:miter;stroke-opacity:1" />
      <path
         inkscape:connector-curvature="0"
         id="path5655"
         d="m 325.4375,519.25 2.64583,-2.64584 h 5.29167 l 2.64583,2.64584 -2.64583,2.64583 h -5.29167 L 325.4375,519.25"
         style="fill:#2b839a;fill-opacity:0.04020099;stroke:#000000;stroke-width:0.26458332px;stroke-linecap:butt;stroke-linejoin:miter;stroke-opacity:1" />
      <path
         inkscape:connector-curvature="0"
         id="path5702"
         d="m 328.08333,521.89583 v 10.58333"
         style="fill:none;stroke:#000000;stroke-width:0.26458332px;stroke-linecap:butt;stroke-linejoin:miter;stroke-opacity:1" />
      <path
         inkscape:connector-curvature="0"
         id="path5704"
         d="m 333.375,521.89583 v 10.58333"
         style="fill:none;stroke:#000000;stroke-width:0.26458332px;stroke-linecap:butt;stroke-linejoin:miter;stroke-opacity:1" />
      <path
         inkscape:connector-curvature="0"
         id="path5706"
         d="m 325.4375,529.83333 2.64583,2.64583 h 5.29167 l 2.64583,-2.64583"
         style="fill:none;stroke:#000000;stroke-width:0.26458332px;stroke-linecap:butt;stroke-linejoin:miter;stroke-opacity:1" />
      <path
         inkscape:connector-curvature="0"
         id="path5710"
         d="m 325.4375,527.1875 2.64583,2.64583 h 5.29167 l 2.64583,-2.64583"
         style="fill:none;stroke:#000000;stroke-width:0.26458332px;stroke-linecap:butt;stroke-linejoin:miter;stroke-opacity:1" />
      <path
         inkscape:connector-curvature="0"
         id="path5712"
         d="m 336.02083,524.54166 -2.64583,2.64584 h -5.29167 l -2.64583,-2.64584"
         style="fill:none;stroke:#000000;stroke-width:0.26458332px;stroke-linecap:butt;stroke-linejoin:miter;stroke-opacity:1" />
      <path
         inkscape:connector-curvature="0"
         id="path5714"
         d="m 325.4375,521.89583 2.64583,2.64583 h 5.29167 l 2.64583,-2.64583"
         style="fill:none;stroke:#000000;stroke-width:0.26458332px;stroke-linecap:butt;stroke-linejoin:miter;stroke-opacity:1" />
      <path
         id="path5606"
         transform="scale(0.26458333)"
         d="m 1250,1922.5195 a 59.999999,59.999999 0 0 0 -60,60 59.999999,59.999999 0 0 0 60,60 59.999999,59.999999 0 0 0 60,-60 59.999999,59.999999 0 0 0 -60,-60 z m 0,10 a 49.999997,49.999997 0 0 1 29.957,10.043 l -69.9218,69.9219 A 49.999997,49.999997 0 0 1 1200,1982.5195 a 49.999997,49.999997 0 0 1 50,-50 z m 39.9648,20.0352 a 49.999997,49.999997 0 0 1 10.0352,29.9648 49.999997,49.999997 0 0 1 -50,50 49.999997,49.999997 0 0 1 -29.957,-10.0429 z"
         style="opacity:1;fill:#123238;fill-opacity:1;fill-rule:nonzero;stroke:#000000;stroke-width:0.99999994;stroke-linecap:butt;stroke-linejoin:round;stroke-miterlimit:4;stroke-dasharray:none;stroke-opacity:1"
         inkscape:connector-curvature="0" />
    </g>
  </g>
</svg>
